# xmcd CD database file
#
# Track frame offsets:
#	150
#	11383
#	26365
#	39164
#	50852
#	70996
#	82227
#	98199
#	117939
#	132829
#	153307
#	164790
#	182966
#	194198
#
# Disc length: 2885 seconds
#
# Revision: 1
# Processed by: cddbd v1.4PL0 Copyright (c) Steve Scherf et al.
# Submitted via: CDValet v3.40 - Copyright (c) 1996 - 1998 Greg Leichner
#
DISCID=c60b430e
DTITLE=Edwards, Tommy - Good Company
DYEAR=1900
DGENRE=
TTITLE0=Ashes Of Love
TTITLE1=I'm Blue And Lonesome
TTITLE2=Are You Ready To Meet Jesus
TTITLE3=The Dark Side Of The Moon
TTITLE4=The Musician's Lament
TTITLE5=How Many Times
TTITLE6=Louise
TTITLE7=The Search That Never Ends
TTITLE8=Oh Willie Dear
TTITLE9=I Don't Want To Go Home
TTITLE10=I'll Be There When The First Teardrops Fall
TTITLE11=Across The Red Dirt Road
TTITLE12=Teardrops Fell Like Raindrops
TTITLE13=The Christmas Letter
EXTD=
EXTT0=
EXTT1=
EXTT2=
EXTT3=
EXTT4=
EXTT5=
EXTT6=
EXTT7=
EXTT8=
EXTT9=
EXTT10=
EXTT11=
EXTT12=
EXTT13=
PLAYORDER=
